<svg xmlns="http://www.w3.org/2000/svg" width="132" height="32"><rect width="132" height="32" rx="2" style="fill:#88bc3d"/><g data-name="das ist gruen"><path d="M26.442 10.094h-4.483V21h4.41a5.783 5.783 0 0 0 3.669-1.069 5.305 5.305 0 0 0 1.729-4.431q0-5.406-5.325-5.406zm1.658 7.779a1.968 1.968 0 0 1-1.816.813h-1.16v-6.278h1.157a2.188 2.188 0 0 1 1.582.5 2.579 2.579 0 0 1 .615 1.652c.024.3.037.608.037.93a4.847 4.847 0 0 1-.415 2.383zM37.194 12.68a9.625 9.625 0 0 0-1-.051 11.545 11.545 0 0 0-3.1.469v2.174q1.172-.27 1.71-.355a7.029 7.029 0 0 1 1.087-.084 1.471 1.471 0 0 1 .956.238 1.053 1.053 0 0 1 .275.831v.352q-1.545.051-2.183.146-2.094.322-2.424 1.532a3.542 3.542 0 0 0-.11.915 2.189 2.189 0 0 0 2.395 2.395 2.661 2.661 0 0 0 2.424-1.406L37.567 21H40v-5.112a3.587 3.587 0 0 0-.557-2.168 3.039 3.039 0 0 0-2.249-1.04zm-.066 6.232a1.715 1.715 0 0 1-1.128.44q-.718 0-.791-.564a2.022 2.022 0 0 1-.015-.257 1.182 1.182 0 0 1 .136-.647.793.793 0 0 1 .5-.29 8.076 8.076 0 0 1 1.3-.11zM46.825 16.438a4.2 4.2 0 0 0-1.633-.661c-.693-.146-1.109-.243-1.245-.293a.412.412 0 0 1-.271-.255.4.4 0 0 1-.03-.155.375.375 0 0 1 .268-.365 2.483 2.483 0 0 1 .875-.11 7.334 7.334 0 0 1 2.373.462V13.01a10.44 10.44 0 0 0-1.684-.33 8.006 8.006 0 0 0-.857-.044q-2.9 0-3.362 1.839a3.625 3.625 0 0 0-.1.879 2.542 2.542 0 0 0 .557 1.76 3.373 3.373 0 0 0 1.831.9 10.09 10.09 0 0 1 1.157.278.452.452 0 0 1 .337.417.427.427 0 0 1-.271.422 2.44 2.44 0 0 1-.908.121 7.851 7.851 0 0 1-2.681-.535v2.007a8.535 8.535 0 0 0 2.923.462q3.507 0 3.508-2.791a2.269 2.269 0 0 0-.787-1.957zM54.391 9.42a1.481 1.481 0 0 0-.586-.117 1.405 1.405 0 0 0-1.029.41 1.37 1.37 0 0 0-.414 1.012 1.511 1.511 0 0 0 .223.816 1.323 1.323 0 0 0 .627.523 1.5 1.5 0 0 0 .593.118 1.438 1.438 0 0 0 .828-.249 1.358 1.358 0 0 0 .52-.66 1.542 1.542 0 0 0 .088-.527 1.327 1.327 0 0 0-.85-1.326zM52.377 13.2V21h2.864v-8.328h-.689a3.458 3.458 0 0 1-2.175.528zM62.1 16.438a4.2 4.2 0 0 0-1.634-.661q-1.039-.219-1.245-.293a.412.412 0 0 1-.271-.255.423.423 0 0 1-.029-.155.376.376 0 0 1 .267-.365 2.483 2.483 0 0 1 .875-.11 7.324 7.324 0 0 1 2.373.462V13.01a10.44 10.44 0 0 0-1.684-.33 7.992 7.992 0 0 0-.857-.044q-2.9 0-3.362 1.839a3.676 3.676 0 0 0-.1.879 2.542 2.542 0 0 0 .556 1.76 3.377 3.377 0 0 0 1.831.9 10.09 10.09 0 0 1 1.157.278.452.452 0 0 1 .337.417.427.427 0 0 1-.271.422 2.437 2.437 0 0 1-.908.121 7.846 7.846 0 0 1-2.68-.535v2.007a8.525 8.525 0 0 0 2.922.462q3.509 0 3.508-2.791a2.271 2.271 0 0 0-.785-1.957zM68.153 19.022a1.078 1.078 0 0 1-.755-.211 1.128 1.128 0 0 1-.2-.785v-3.149h1.838v-1.955H67.2v-1.846h-2.086l-.249.915a1.206 1.206 0 0 1-.469.71 1.665 1.665 0 0 1-.93.221h-.132v1.955h1V18.4a2.768 2.768 0 0 0 .7 2.123 3.37 3.37 0 0 0 2.318.645 4.975 4.975 0 0 0 1.809-.285v-2.059A5.6 5.6 0 0 1 68.5 19a2.275 2.275 0 0 1-.347.022zM78.531 19.117H76.35c-.4 0-.635-.114-.719-.344a.842.842 0 0 1-.051-.3.744.744 0 0 1 .139-.447 6.243 6.243 0 0 0 1.48.169 4.258 4.258 0 0 0 2.446-.631 2.5 2.5 0 0 0 1.062-2.21 2.715 2.715 0 0 0-.125-.829 2.727 2.727 0 0 1 .667-.08h.241v-1.523h-2.468a5.4 5.4 0 0 0-1.823-.293 4.077 4.077 0 0 0-2.659.762 2.559 2.559 0 0 0-.908 2.08 2.464 2.464 0 0 0 1 2.072 2.6 2.6 0 0 0-1.076 1.421 1.983 1.983 0 0 0-.074.534 1.356 1.356 0 0 0 .8 1.246A1.965 1.965 0 0 0 73.1 21.82a1.452 1.452 0 0 0-.1.535q0 1.464 2.461 1.794a12.022 12.022 0 0 0 1.655.1q4.41 0 4.409-2.879.002-2.251-2.994-2.253zm-2.1-4.464a.6.6 0 0 1 .395-.341 1.2 1.2 0 0 1 .352-.05.735.735 0 0 1 .827.732 3.809 3.809 0 0 1 .022.44 1.835 1.835 0 0 1-.186.977.735.735 0 0 1-.656.275.76.76 0 0 1-.717-.336 1.892 1.892 0 0 1-.147-.879 2.2 2.2 0 0 1 .109-.818zm2.314 7.567a1.339 1.339 0 0 1-.659.216 7.71 7.71 0 0 1-.915.05 3.487 3.487 0 0 1-1.213-.149.513.513 0 0 1-.362-.5 1.254 1.254 0 0 1 .278-.769 7.1 7.1 0 0 0 1.018.059h.945c.62 0 .972.114 1.055.345a.684.684 0 0 1 .044.255.6.6 0 0 1-.192.493zM85.182 14.254v-1.582h-.688a3.46 3.46 0 0 1-2.176.527V21h2.864v-5.354a13.985 13.985 0 0 1 2.571-.374v-2.555a3.434 3.434 0 0 0-2.571 1.537zM90.873 12.079a1.378 1.378 0 0 0 .787-.227 1.244 1.244 0 0 0 .487-.616 1.425 1.425 0 0 0 .082-.5 1.222 1.222 0 0 0-.785-1.222 1.383 1.383 0 0 0-.556-.11 1.3 1.3 0 0 0-1.333 1.332 1.308 1.308 0 0 0 .377.956 1.263 1.263 0 0 0 .941.387zM94.184 12.079a1.382 1.382 0 0 0 .787-.227 1.255 1.255 0 0 0 .487-.616 1.461 1.461 0 0 0 .081-.5 1.222 1.222 0 0 0-.791-1.222 1.338 1.338 0 0 0-.55-.11 1.306 1.306 0 0 0-.973.4 1.249 1.249 0 0 0-.36.929 1.3 1.3 0 0 0 .377.96 1.273 1.273 0 0 0 .942.386zM93.518 18.568a2.162 2.162 0 0 1-1.107.33.775.775 0 0 1-.755-.359 2.031 2.031 0 0 1-.109-.812v-4.879l-2.863.256v5.486a3.108 3.108 0 0 0 .417 1.688 1.973 1.973 0 0 0 1.2.876 2.5 2.5 0 0 0 .68.088 2.883 2.883 0 0 0 1.407-.348 4.37 4.37 0 0 0 1.259-1.117l.4 1.223h2.329v-8.152l-2.863.256zM104.24 12.826a2.5 2.5 0 0 0-.748-.109 3.573 3.573 0 0 0-2.79 1.494v-1.539h-.688a3.46 3.46 0 0 1-2.176.527V21h2.862v-5.61a2.536 2.536 0 0 1 1.187-.352.81.81 0 0 1 .916.915V21h2.863v-5.684a3.251 3.251 0 0 0-.373-1.632 1.783 1.783 0 0 0-1.053-.858zM109.865 18.84a1.465 1.465 0 0 0-.667-.557 1.536 1.536 0 0 0-.622-.125 1.5 1.5 0 0 0-1.113.461 1.421 1.421 0 0 0-.418 1.048 1.591 1.591 0 0 0 .238.868 1.43 1.43 0 0 0 .67.561 1.581 1.581 0 0 0 .63.124 1.536 1.536 0 0 0 .876-.264 1.422 1.422 0 0 0 .553-.71 1.62 1.62 0 0 0 .094-.557 1.535 1.535 0 0 0-.241-.849z" style="fill:#fff"/></g></svg>