<svg xmlns="http://www.w3.org/2000/svg" width="96" height="32"><rect width="96" height="32" rx="2.234" style="fill:#282d37"/><path d="M11.28 5h9.44c2.184 0 2.976.227 3.774.654a4.457 4.457 0 0 1 1.852 1.852c.427.8.654 1.59.654 3.774v9.44c0 2.184-.227 2.976-.654 3.774a4.457 4.457 0 0 1-1.852 1.852c-.8.427-1.59.654-3.774.654h-9.44c-2.18 0-2.98-.227-3.774-.654a4.457 4.457 0 0 1-1.852-1.852C5.227 23.7 5 22.9 5 20.72v-9.44c0-2.18.227-2.98.654-3.774a4.457 4.457 0 0 1 1.852-1.852C8.3 5.227 9.1 5 11.28 5z" style="fill:#fff;fill-rule:evenodd"/><path d="M21.878 10.844a1.471 1.471 0 0 1 1.47 1.473v7.356a1.479 1.479 0 0 1-1.47 1.483H10.129a1.478 1.478 0 0 1-1.477-1.473v-7.366a1.472 1.472 0 0 1 1.477-1.473h11.749zm0 1.043H10.129a.4.4 0 0 0-.293.127.408.408 0 0 0-.111.3v7.36a.407.407 0 0 0 .4.422h11.753a.408.408 0 0 0 .4-.422v-7.36a.412.412 0 0 0-.108-.3.4.4 0 0 0-.289-.13zm-8.732.733c1.742 0 2.7 1.091 2.7 3.336 0 1.949-.651 3.382-2.7 3.4h-2.472V12.62zm6.222 0c1.894 0 1.922 1.5 1.922 1.64a1.654 1.654 0 0 1-1.175 1.568 1.612 1.612 0 0 1 1.419 1.63c0 1.893-1.965 1.893-2.595 1.893h-2.381v-6.728zm-6.749 1.06h-.328v4.582h.574c.857 0 1.355-.685 1.355-2.166 0-1.357-.147-2.416-1.601-2.416zm6.248 2.852h-.707v1.73h.715c.3 0 1.037-.051 1.037-.864 0-.376-.206-.866-1.045-.866zm-.2-2.871h-.507v1.625h.64a.809.809 0 0 0 .882-.814c0-.558-.288-.811-1.012-.811z" style="fill:#ec0016;fill-rule:evenodd"/><g data-name="Eine app fuer alles" style="isolation:isolate"><path d="M31.74 23.553v-5.09h2.98v.514h-2.3v1.711h1.825v.512H32.42v1.84h2.519l-.065.513zM36.73 23.553h-.649v-3.067h-.547v-.5h.28a1.423 1.423 0 0 0 .769-.15h.147zm-.335-5.1a.428.428 0 1 1-.314.729.429.429 0 0 1-.113-.308.4.4 0 0 1 .113-.294.428.428 0 0 1 .319-.131zM37.933 23.553v-3.534a.9.9 0 0 0 .537-.178h.113v.6a3.509 3.509 0 0 1 .543-.373 1.638 1.638 0 0 1 .783-.2.9.9 0 0 1 .806.389 1.294 1.294 0 0 1 .185.728v2.571h-.65v-2.485a.748.748 0 0 0-.14-.506.545.545 0 0 0-.423-.161 1.506 1.506 0 0 0-.653.161c-.089.043-.24.129-.451.257v2.731zM44.916 21.885h-2.393a1.817 1.817 0 0 0 .161.868.93.93 0 0 0 .9.4 2.1 2.1 0 0 0 .731-.132q.148-.055.441-.188v.539a2.775 2.775 0 0 1-1.193.3 1.667 1.667 0 0 1-1.312-.506 2.017 2.017 0 0 1-.42-1.391 2.035 2.035 0 0 1 .461-1.463 1.518 1.518 0 0 1 1.142-.441 1.339 1.339 0 0 1 1.165.52 2.022 2.022 0 0 1 .318 1.206zm-.7-.475a2.064 2.064 0 0 0-.126-.7.655.655 0 0 0-.663-.387.786.786 0 0 0-.78.479 1.891 1.891 0 0 0-.123.605zM51.909 23.553h-.741l-.561-1.518h-1.856l-.567 1.518h-.65l2-5.117h.414zm-1.49-2.044-.728-2-.742 2zM52.692 24.968v-4.949a.9.9 0 0 0 .537-.178h.113v.6a3.647 3.647 0 0 1 .522-.379 1.584 1.584 0 0 1 .77-.2 1.11 1.11 0 0 1 1 .584 2.454 2.454 0 0 1 .28 1.269 2.3 2.3 0 0 1-.387 1.425 1.254 1.254 0 0 1-1.048.527 1.943 1.943 0 0 1-1.135-.421v1.723zm.65-2.122a2.988 2.988 0 0 0 .379.208 1.554 1.554 0 0 0 .6.116.758.758 0 0 0 .7-.373 2.224 2.224 0 0 0 .187-1.08 1.736 1.736 0 0 0-.239-1.076.692.692 0 0 0-.561-.24 1.33 1.33 0 0 0-.618.158q-.106.054-.444.263zM56.879 24.968v-4.949a.9.9 0 0 0 .537-.178h.112v.6a3.642 3.642 0 0 1 .524-.379 1.579 1.579 0 0 1 .768-.2 1.107 1.107 0 0 1 1 .584 2.434 2.434 0 0 1 .281 1.269 2.307 2.307 0 0 1-.386 1.425 1.257 1.257 0 0 1-1.05.527 1.948 1.948 0 0 1-1.135-.421v1.723zm.649-2.122a3.132 3.132 0 0 0 .38.208 1.554 1.554 0 0 0 .6.116.757.757 0 0 0 .7-.373 2.208 2.208 0 0 0 .189-1.08 1.735 1.735 0 0 0-.24-1.076.691.691 0 0 0-.56-.24 1.334 1.334 0 0 0-.619.158q-.106.054-.445.263zM62.8 20.4v-.469h.547v-.274a1.641 1.641 0 0 1 .194-.843 1.162 1.162 0 0 1 1.091-.554h.365v.516a1.431 1.431 0 0 0-.263-.027q-.738 0-.738.851v.331h.882v.469h-.882v3.158h-.649V20.4zM67.919 23.04a2.786 2.786 0 0 1-.461.376 1.592 1.592 0 0 1-.854.25.9.9 0 0 1-.818-.407 1.549 1.549 0 0 1-.178-.821v-2.477l.65-.041v2.535a.951.951 0 0 0 .1.489.5.5 0 0 0 .461.219 1.3 1.3 0 0 0 .643-.178 3.792 3.792 0 0 0 .406-.273v-2.751l.65-.041v3.633h-.427zm-1.436-4.553a.375.375 0 0 1 .39.39.374.374 0 0 1-.4.393.382.382 0 0 1-.284-.116.392.392 0 0 1-.1-.277.377.377 0 0 1 .1-.273.393.393 0 0 1 .294-.117zm1.194 0a.375.375 0 0 1 .392.39.374.374 0 0 1-.4.393.38.38 0 0 1-.283-.116.388.388 0 0 1-.1-.277.373.373 0 0 1 .1-.273.386.386 0 0 1 .291-.117zM69.375 23.553v-.469h.561v-2.6h-.547v-.5h.28a1.433 1.433 0 0 0 .769-.15h.147v.618a2.317 2.317 0 0 1 1.189-.594v.642a3.427 3.427 0 0 0-1.189.3v2.283h.615v.469zM76.543 23.081a1.6 1.6 0 0 1-1.18.585.989.989 0 0 1-.768-.3 1.043 1.043 0 0 1-.24-.73.982.982 0 0 1 .247-.725 2.023 2.023 0 0 1 1.185-.394c.135-.013.381-.032.738-.054v-.3a.953.953 0 0 0-.139-.574.661.661 0 0 0-.565-.213 3.159 3.159 0 0 0-1.24.318v-.523a2.88 2.88 0 0 1 1.272-.307 1.4 1.4 0 0 1 .984.3 1.322 1.322 0 0 1 .338 1v1.635a.329.329 0 0 0 .072.252.285.285 0 0 0 .194.054.755.755 0 0 0 .2-.027v.435a1.518 1.518 0 0 1-.467.082.615.615 0 0 1-.631-.514zm-.018-.417v-.783l-.4.027a2.105 2.105 0 0 0-.9.2.553.553 0 0 0-.228.509.61.61 0 0 0 .133.448.543.543 0 0 0 .4.126 1.355 1.355 0 0 0 .995-.527zM79.164 23.553h-.649V18.9h-.547v-.489h.28a1.474 1.474 0 0 0 .776-.146h.14zM81.2 23.553h-.649V18.9h-.547v-.489h.28a1.481 1.481 0 0 0 .777-.146h.139zM85.3 21.885h-2.39a1.817 1.817 0 0 0 .161.868.931.931 0 0 0 .9.4 2.1 2.1 0 0 0 .731-.132c.1-.037.245-.1.442-.188v.539a2.786 2.786 0 0 1-1.194.3 1.667 1.667 0 0 1-1.312-.506 2.012 2.012 0 0 1-.42-1.391 2.035 2.035 0 0 1 .461-1.463 1.517 1.517 0 0 1 1.141-.441 1.341 1.341 0 0 1 1.166.52 2.022 2.022 0 0 1 .318 1.206zm-.7-.475a2.085 2.085 0 0 0-.127-.7.655.655 0 0 0-.664-.387.786.786 0 0 0-.779.479 1.891 1.891 0 0 0-.123.605zM86.027 23.385v-.539a3.223 3.223 0 0 0 .421.183 2.08 2.08 0 0 0 .68.107 1.113 1.113 0 0 0 .54-.1.407.407 0 0 0 .2-.389.432.432 0 0 0-.106-.3 1.726 1.726 0 0 0-.595-.312 2.689 2.689 0 0 1-.814-.424.932.932 0 0 1-.293-.721.906.906 0 0 1 .325-.744 1.387 1.387 0 0 1 .909-.26 2.862 2.862 0 0 1 .994.2v.581a2.491 2.491 0 0 0-1-.263c-.438 0-.656.146-.656.438a.433.433 0 0 0 .171.372 2.8 2.8 0 0 0 .591.273 3.156 3.156 0 0 1 .7.329 1.006 1.006 0 0 1 .023 1.561 1.469 1.469 0 0 1-.943.268 2.73 2.73 0 0 1-1.147-.26zM89.876 22.671a.49.49 0 0 1 .355.823.461.461 0 0 1-.351.145.468.468 0 0 1-.356-.145.482.482 0 0 1-.129-.345.449.449 0 0 1 .129-.331.466.466 0 0 1 .352-.147z" style="fill:#fff"/></g><g data-name="DB Navigator" style="isolation:isolate"><path d="M31.668 14.553V8.736h2.285a2.855 2.855 0 0 1 1.883.578 2.835 2.835 0 0 1 .852 2.3 2.9 2.9 0 0 1-.868 2.336 2.872 2.872 0 0 1-1.906.6zm1.406-1.039h.789a1.218 1.218 0 0 0 1.037-.434 1.445 1.445 0 0 0 .266-.621 4.629 4.629 0 0 0 .062-.824 2.417 2.417 0 0 0-.332-1.461 1.242 1.242 0 0 0-1.035-.4h-.789zM37.668 14.553V8.736h2.277a2.513 2.513 0 0 1 1.36.317 1.292 1.292 0 0 1 .59 1.176 1.161 1.161 0 0 1-.34.9 1.822 1.822 0 0 1-.625.344 2.347 2.347 0 0 1 .6.183 1.287 1.287 0 0 1 .692 1.246 1.381 1.381 0 0 1-.824 1.371 3.489 3.489 0 0 1-1.5.282zm1.406-3.485h.754q.706 0 .707-.668a.645.645 0 0 0-.156-.484.736.736 0 0 0-.524-.164h-.781zm0 2.469h.742a1.283 1.283 0 0 0 .711-.156.75.75 0 0 0 .289-.676.709.709 0 0 0-.257-.629 1.142 1.142 0 0 0-.637-.148h-.848zM45.6 14.553V8.736h1.187l2.568 3.364V8.736h1.176v5.817h-.922l-2.832-3.711v3.711zM53.949 13.932a1.528 1.528 0 0 1-1.328.75 1.213 1.213 0 0 1-.945-.368 1.25 1.25 0 0 1-.289-.878 1.127 1.127 0 0 1 .386-.942 2.616 2.616 0 0 1 1.336-.387c.152-.012.412-.027.782-.043v-.234a.718.718 0 0 0-.145-.5.759.759 0 0 0-.555-.164 5.582 5.582 0 0 0-1.472.274v-.993a5.057 5.057 0 0 1 1.593-.277 2.224 2.224 0 0 1 1.36.332 1.574 1.574 0 0 1 .508 1.328v1.567a.357.357 0 0 0 .066.25.269.269 0 0 0 .192.062.808.808 0 0 0 .191-.027v.82a1.729 1.729 0 0 1-.688.125 1 1 0 0 1-.742-.258 1.081 1.081 0 0 1-.25-.437zm-.058-.461v-.8a5.247 5.247 0 0 0-.86.086.512.512 0 0 0-.312.2.708.708 0 0 0-.074.367.524.524 0 0 0 .121.387.511.511 0 0 0 .359.109 1.1 1.1 0 0 0 .766-.349zM60.051 10.3l-1.7 4.273h-.922L55.68 10.3h1.355l.945 2.484.954-2.484zM62.277 14.553h-1.289v-3.285h-.519v-.9h.351a2.07 2.07 0 0 0 1.078-.191h.379zm-.648-6.117a.665.665 0 0 1 .5.207.712.712 0 0 1 0 .953.684.684 0 0 1-1.184-.485.634.634 0 0 1 .184-.468.675.675 0 0 1 .5-.207zM64.223 13.01a.459.459 0 0 0-.11.293c0 .226.153.34.457.34h1.012a2.2 2.2 0 0 1 1.148.238 1.019 1.019 0 0 1 .461.941q0 1.454-2.238 1.453-2.1 0-2.1-1.019a.977.977 0 0 1 .692-.887.685.685 0 0 1-.406-.625 1.22 1.22 0 0 1 .57-.973 1.323 1.323 0 0 1-.531-1.113 1.36 1.36 0 0 1 .453-1.082 2.022 2.022 0 0 1 1.369-.41 2.693 2.693 0 0 1 .856.129H67.2v.687h-.137a1.227 1.227 0 0 0-.406.063 1.424 1.424 0 0 1 .11.57 1.327 1.327 0 0 1-.524 1.141 2.062 2.062 0 0 1-1.254.344 3.158 3.158 0 0 1-.766-.09zm.023 1.523a.748.748 0 0 0-.211.512.314.314 0 0 0 .16.289 1.772 1.772 0 0 0 .793.125 1.938 1.938 0 0 0 .844-.133.365.365 0 0 0 .2-.351.322.322 0 0 0-.179-.332 1.23 1.23 0 0 0-.485-.071h-.586a3.034 3.034 0 0 1-.536-.039zm.731-3.6a.546.546 0 0 0-.454.176.873.873 0 0 0-.121.523 1.136 1.136 0 0 0 .09.527.525.525 0 0 0 .492.223.487.487 0 0 0 .473-.223 1.1 1.1 0 0 0 .09-.515.845.845 0 0 0-.137-.567.572.572 0 0 0-.433-.149zM70.039 13.932a1.528 1.528 0 0 1-1.328.75 1.213 1.213 0 0 1-.945-.368 1.25 1.25 0 0 1-.289-.878 1.124 1.124 0 0 1 .386-.942 2.616 2.616 0 0 1 1.336-.387c.152-.012.412-.027.781-.043v-.234a.718.718 0 0 0-.144-.5.76.76 0 0 0-.555-.164 5.582 5.582 0 0 0-1.472.274v-.993a5.057 5.057 0 0 1 1.593-.277 2.226 2.226 0 0 1 1.36.332 1.574 1.574 0 0 1 .508 1.328v1.567a.357.357 0 0 0 .066.25.268.268 0 0 0 .191.062.816.816 0 0 0 .192-.027v.82a1.732 1.732 0 0 1-.688.125 1 1 0 0 1-.742-.258 1.081 1.081 0 0 1-.25-.437zm-.059-.461v-.8a5.231 5.231 0 0 0-.859.086.512.512 0 0 0-.312.2.706.706 0 0 0-.075.367.524.524 0 0 0 .121.387.515.515 0 0 0 .36.109 1.094 1.094 0 0 0 .765-.349zM74.961 14.5a2.454 2.454 0 0 1-.883.145 1.53 1.53 0 0 1-1.23-.414 1.574 1.574 0 0 1-.286-1.028v-2.017H72V10.3h.1a.886.886 0 0 0 .418-.082.617.617 0 0 0 .293-.414l.129-.465h.914v.961h1.027v.891h-1.029v1.906a.642.642 0 0 0 .128.465.629.629 0 0 0 .43.121 1.89 1.89 0 0 0 .551-.11zM77.637 10.166a2.065 2.065 0 0 1 1.652.652 2.382 2.382 0 0 1 .492 1.606 2.3 2.3 0 0 1-.586 1.707 2.128 2.128 0 0 1-1.562.551 2.059 2.059 0 0 1-1.649-.653 2.42 2.42 0 0 1-.492-1.633 2.27 2.27 0 0 1 .582-1.679 2.141 2.141 0 0 1 1.563-.551zm0 .895a.684.684 0 0 0-.672.39 2.408 2.408 0 0 0-.129.953 2.35 2.35 0 0 0 .156 1.043.777.777 0 0 0 1.317-.051 2.486 2.486 0 0 0 .129-.972 2.246 2.246 0 0 0-.157-1.024.69.69 0 0 0-.644-.339zM80.312 14.553v-.813h.532v-2.472h-.524v-.9h.348a4.126 4.126 0 0 0 .7-.047.931.931 0 0 0 .375-.144h.379v.8a2.381 2.381 0 0 1 .648-.563 1.868 1.868 0 0 1 .73-.214v1.168a5.19 5.19 0 0 0-1.371.246v2.126h.7v.813z" style="fill:#fff"/></g></svg>