<?xml version="1.0" encoding="UTF-8"?>
<svg width="68px" height="40px" viewBox="0 0 68 40" version="1.1" xmlns="http://www.w3.org/2000/svg" xmlns:xlink="http://www.w3.org/1999/xlink">
    <title>Icon_Footer_paydirekt_68x39</title>
    <defs>
        <polygon id="path-1" points="0.11187547 0.0809026961 5.18172907 0.0809026961 5.18172907 5.15118797 0.11187547 5.15118797"></polygon>
        <polygon id="path-3" points="0.00753832385 0.0932239383 67.3108244 0.0932239383 67.3108244 18.9834847 0.00753832385 18.9834847"></polygon>
    </defs>
    <g id="Footer" stroke="none" stroke-width="1" fill="none" fill-rule="evenodd">
        <g id="Icon_Lieferung" transform="translate(-98.000000, -169.000000)">
            <g id="Icon_Footer_paydirekt_68x39" transform="translate(98.000000, 169.500000)">
                <g id="paydirekt_logo_4c" transform="translate(0.000000, 12.000000)">
                    <g id="Group-3" transform="translate(13.317705, 17.966339)">
                        <mask id="mask-2" fill="white">
                            <use xlink:href="#path-1"></use>
                        </mask>
                        <g id="Clip-2"></g>
                        <path d="M0.232054736,3.38269719 C-0.192729813,2.05243431 0.544392621,0.623419383 1.87817339,0.200770692 C3.21170288,-0.222380554 4.63820503,0.509716331 5.06160755,1.84688934 C5.4863921,3.179665 4.74864147,4.60717226 3.41523762,5.02919276 C2.08145685,5.45837466 0.655708537,4.71999584 0.232054736,3.38269719" id="Fill-1" fill="#119046" mask="url(#mask-2)"></path>
                    </g>
                    <path d="M8.12342342,21.4794487 C7.81724184,20.5155484 8.34831675,19.4924722 9.30593516,19.1888034 C10.2645587,18.8843807 11.2887656,19.4152044 11.594319,20.3715664 C11.8979878,21.3270489 11.3698026,22.3530148 10.4109278,22.6622117 C9.45242992,22.9651267 8.42834862,22.4345543 8.12342342,21.4794487" id="Fill-4" fill="#119046"></path>
                    <path d="M3.92910003,19.259538 C3.68423015,18.4910059 4.10738139,17.6658107 4.87830064,17.4240818 C5.64708404,17.1760709 6.47014336,17.6065092 6.71488761,18.37479 C6.95938058,19.1421914 6.53434476,19.9622354 5.76430497,20.2094924 C4.99627541,20.4562469 4.17409556,20.0283214 3.92910003,19.259538" id="Fill-5" fill="#119046"></path>
                    <g id="Group-9">
                        <mask id="mask-4" fill="white">
                            <use xlink:href="#path-3"></use>
                        </mask>
                        <g id="Clip-7"></g>
                        <path d="M48.3117356,7.13841577 C48.4037031,6.68071388 48.5654002,6.31736667 48.7965754,6.04209221 C49.2124396,5.56202662 49.7549477,5.32167973 50.441312,5.32167973 C51.1526785,5.32167973 51.7223245,5.56202662 52.1582909,6.04209221 C52.4080607,6.31736667 52.57315,6.68071388 52.6485333,7.13841577 L48.3117356,7.13841577 Z M62.4269957,3.61462629 L59.6757588,3.61462629 L57.2588465,6.9279709 L57.2588465,0.538110684 L54.8740978,0.538110684 L54.8740978,6.46423834 C54.7039829,5.90037172 54.4304674,5.39078103 54.0575716,4.93735085 C53.1598829,3.85233477 51.9484743,3.31284206 50.4146766,3.31284206 C49.5128418,3.31284206 48.7066181,3.51311019 48.003795,3.91502849 C47.665073,4.10474298 47.3739681,4.33478749 47.1098755,4.60126724 L47.1098755,3.58472427 L44.3963301,3.58472427 C43.8945291,3.63058241 43.4416014,3.75596986 43.0426985,3.9617661 C42.7033482,4.1317553 42.3952821,4.38454043 42.1141026,4.72100095 C41.8222438,5.05708456 41.6817797,5.52131967 41.6817797,6.1124499 L41.6817797,12.2482686 L44.0679105,12.2482686 L44.0679105,6.402801 C44.1089944,6.26861884 44.1792264,6.14285447 44.2801143,6.02864886 C44.3705742,5.93655567 44.5011128,5.85288028 44.6634381,5.77234585 C44.8226224,5.69243962 45.034198,5.65374289 45.2916317,5.65374289 L46.3687326,5.65374289 C46.0197082,6.35053529 45.8494677,7.10738301 45.8494677,7.92177326 C45.8494677,9.21447016 46.2383196,10.2695842 47.0137618,11.0933974 C47.9400962,12.071118 49.1217285,12.559727 50.5584073,12.559727 C51.6294775,12.559727 52.5962676,12.2284177 53.454757,11.558512 C53.9849525,11.1431503 54.4158933,10.5971244 54.7578819,9.92244441 L52.5823217,9.32025798 C52.4353243,9.60784503 52.2282717,9.83939721 51.9678226,10.0139094 C51.5432894,10.2987324 51.0867182,10.4443477 50.5854197,10.4443477 C49.8667661,10.4443477 49.2840537,10.1812602 48.8337645,9.6583518 C48.5694206,9.35882907 48.4018185,8.97311816 48.3196508,8.49858067 L54.8740978,8.49858067 L54.8740978,12.2586966 L57.2588465,12.2586966 L57.2588465,8.67233904 L59.670105,12.2586966 L62.4269957,12.2586966 L59.4771239,7.75844291 L62.4269957,3.61462629 Z M65.0347532,5.56680089 L65.0347532,9.71313029 C65.0347532,9.93299807 65.0892804,10.0769801 65.1918016,10.1522377 C65.3081431,10.2293798 65.4820271,10.2695842 65.7137049,10.2695842 L67.3108244,10.2695842 L67.3108244,12.2586966 L64.2221219,12.2586966 C63.6699397,12.2586966 63.2602318,12.120494 62.9907367,11.8459734 C62.7655921,11.6098982 62.6546531,11.1983057 62.6546531,10.6081806 L62.6546531,0.507203557 L65.0347532,0.507203557 L65.0347532,3.5682656 L67.3108244,3.5682656 L67.3108244,5.56680089 L65.0347532,5.56680089 Z M38.4278622,12.2586966 L40.8098469,12.2586966 L40.8098469,3.61462629 L38.4278622,3.61462629 L38.4278622,12.2586966 Z M34.5975142,9.76640111 C34.1482301,10.3525058 33.5655177,10.643862 32.8429694,10.643862 C32.2084938,10.643862 31.6687498,10.4123098 31.2180837,9.94945674 C30.7424154,9.47077317 30.5030736,8.82574393 30.5030736,8.02341499 C30.5030736,7.38881376 30.6612528,6.83336494 30.9683139,6.3521686 C31.4193569,5.65839152 32.051571,5.31112607 32.8624434,5.31112607 C33.529585,5.31112607 34.076993,5.56680089 34.5125825,6.07777361 C34.9485489,6.58434897 35.1615065,7.22573469 35.1615065,8.0072076 C35.1615065,8.68628494 34.973551,9.27490239 34.5975142,9.76640111 Z M35.1615065,0.0932239383 L35.1615065,4.57061139 C34.7374758,4.12145293 34.3110579,3.80986888 33.9041141,3.63083368 C33.3903773,3.41950934 32.8575435,3.31284206 32.3017177,3.31284206 C31.19572,3.31284206 30.213602,3.70759895 29.363656,4.4986204 C28.4374473,5.35698421 27.9748455,6.52906793 27.9748455,8.01386645 C27.9748455,9.3177452 28.3317851,10.3748695 29.042649,11.1846111 C29.8482446,12.0992611 30.9184353,12.559727 32.2596287,12.559727 C32.9615723,12.559727 33.5870019,12.414363 34.1253639,12.1147146 C34.4721268,11.9267591 34.8182615,11.595701 35.1615065,11.128325 L35.1615065,12.2586966 L37.546004,12.2586966 L37.546004,0.0932239383 L35.1615065,0.0932239383 Z M38.4278622,3.18695205 L40.8098469,3.18695205 L40.8098469,1.36694939 L38.4278622,1.36694939 L38.4278622,3.18695205 Z" id="Fill-6" fill="#074B76" mask="url(#mask-4)"></path>
                        <path d="M21.4469083,18.8944318 C22.412065,18.5887528 22.9467835,17.5602741 22.6400993,16.5926046 C22.3315306,15.6245582 21.2980264,15.0908449 20.3340004,15.4021777 C19.3695975,15.7091131 18.8365124,16.7374661 19.142317,17.7058894 C19.4508858,18.6733077 20.482631,19.2061415 21.4469083,18.8944318 Z M15.6490578,9.74956552 C15.1796715,10.3448418 14.586531,10.643862 13.8680031,10.643862 C13.2718473,10.643862 12.7611259,10.426507 12.3338286,9.99544052 C11.8286352,9.49150357 11.5769809,8.82574393 11.5769809,8.0072076 C11.5769809,7.31732533 11.7625493,6.71425942 12.1343143,6.19888934 C12.5534451,5.62019735 13.1375395,5.33072571 13.8865977,5.33072571 C14.6596528,5.33072571 15.2677442,5.61479488 15.712254,6.18871261 C16.078114,6.66375265 16.2609184,7.24508306 16.2609184,7.93169872 C16.2609184,8.61894258 16.0560016,9.2262802 15.6490578,9.74956552 Z M6.59201293,9.66702087 C6.14662363,10.3184577 5.51051474,10.643862 4.68368625,10.643862 C4.01327798,10.643862 3.46310598,10.4123098 3.02940108,9.94945674 C2.59820896,9.48622674 2.38148214,8.84986657 2.38148214,8.04251208 C2.38148214,7.36129888 2.53840492,6.78637605 2.84785311,6.32452808 C3.30480118,5.64896862 3.94153827,5.31112607 4.75605416,5.31112607 C5.41904974,5.31112607 5.97085505,5.55687543 6.40870603,6.05126384 C6.84743647,6.54263691 7.06579659,7.2011095 7.06579659,8.02341499 C7.06579659,8.65801622 6.90799434,9.20467034 6.59201293,9.66702087 Z M24.7221844,3.61462629 L22.7036725,8.75400421 L20.9498815,3.61462629 L16.2232268,3.61462629 L16.2232268,4.70868836 C15.8770921,4.30161887 15.5427674,4.00033719 15.2196246,3.80496897 C14.6845292,3.4823287 14.0749301,3.32113421 13.3930887,3.32113421 C12.5707832,3.32113421 11.8324044,3.52265874 11.17456,3.92394884 C10.5236257,4.31368019 10.020317,4.83935264 9.6677747,5.50473536 C9.53899501,5.74169 9.43245336,5.99045469 9.34299859,6.24097832 C9.03895286,5.33223338 8.46905557,4.59460839 7.63154779,4.03350582 C6.92043258,3.55243512 6.11986258,3.31284206 5.23059165,3.31284206 C4.48266428,3.31284206 3.83964526,3.4745391 3.30480118,3.7956717 C2.98781466,3.98513491 2.68025105,4.27950645 2.38148214,4.68192731 L2.38148214,3.61462629 L0,3.61462629 L0,15.6934082 L2.38148214,15.6934082 L2.38148214,11.3180394 C3.09950749,12.1451192 4.06541805,12.559727 5.27644978,12.559727 C6.28118271,12.559727 7.14896943,12.2956344 7.87905609,11.757775 C8.5635359,11.2588636 9.04196819,10.6084319 9.31950414,9.80899264 C9.48471907,10.2818968 9.72230191,10.7094454 10.0327552,11.0933974 C10.8368431,12.071118 11.8982391,12.559727 13.219456,12.559727 C14.4370209,12.559727 15.4392411,12.0664694 16.2232268,11.0732952 L16.2232268,12.2586966 L18.6067191,12.2586966 L18.6067191,4.12861434 L21.4545722,12.0619464 L20.6159337,14.4551129 C21.4704027,14.271806 22.3364305,14.5757261 22.8945177,15.2004019 L27.2525484,3.61462629 L24.7221844,3.61462629 L24.7221844,3.61462629 Z" id="Fill-8" fill="#119046" mask="url(#mask-4)"></path>
                    </g>
                </g>
            </g>
        </g>
    </g>
</svg>