<?xml version="1.0" encoding="UTF-8"?>
<svg width="68px" height="40px" viewBox="0 0 68 40" version="1.1" xmlns="http://www.w3.org/2000/svg" xmlns:xlink="http://www.w3.org/1999/xlink">
    <title>Icon_Footer_SEPA_68x39</title>
    <g id="Footer" stroke="none" stroke-width="1" fill="none" fill-rule="evenodd">
        <g id="Icon_Lieferung" transform="translate(-98.000000, -240.000000)">
            <g id="Icon_Footer_SEPA_68x39" transform="translate(98.000000, 240.500000)">
                <g id="lastschriftlogo-qf_rgb" transform="translate(0.000000, 5.500000)">
                    <g id="Group-4">
                        <path d="M67.0067754,27.5997004 L0.867572734,27.5997004 C0.478889985,27.5997004 0.162724862,27.283633 0.162724862,26.8949502 L0.162724862,0.913409347 C0.162724862,0.524726598 0.478889985,0.208561475 0.867572734,0.208561475 L67.0067754,0.208561475 C67.3953604,0.208561475 67.7114278,0.524726598 67.7114278,0.913409347 L67.7114278,26.8949502 C67.7114278,27.283633 67.3953604,27.5997004 67.0067754,27.5997004" id="Fill-1" fill="#FFFFFE"></path>
                        <path d="M0.708170782,0.450742982 C0.53586812,0.450742982 0.395817233,0.591673463 0.395817233,0.765051184 L0.395817233,27.0432107 C0.395817233,27.2165884 0.53586812,27.3576166 0.708170782,27.3576166 L67.1661773,27.3576166 C67.3382845,27.3576166 67.4784331,27.2165884 67.4784331,27.0432107 L67.4784331,0.765051184 C67.4784331,0.591673463 67.3382845,0.450742982 67.1661773,0.450742982 L0.708170782,0.450742982 Z M67.1661773,27.7559749 L0.708170782,27.7559749 C0.317631113,27.7559749 0,27.4363891 0,27.0432107 L0,0.765051184 C0,0.371970466 0.317631113,0.0522869678 0.708170782,0.0522869678 L67.1661773,0.0522869678 C67.5565215,0.0522869678 67.8741526,0.371970466 67.8741526,0.765051184 L67.8741526,27.0432107 C67.8741526,27.4363891 67.5565215,27.7559749 67.1661773,27.7559749 L67.1661773,27.7559749 Z" id="Fill-3" fill="#9CA2A8"></path>
                    </g>
                    <path d="M34.4705989,14.994925 C33.5597306,14.994925 32.7222595,14.7753198 32.0413561,14.4089201 L32.2718097,12.8905456 C32.962975,13.2568476 33.6749573,13.4665818 34.4494886,13.4665818 C35.3081677,13.4665818 35.685318,13.1523714 35.685318,12.6079028 C35.685318,11.3724644 32.072826,11.8959204 32.072826,9.26759627 C32.072826,7.9377481 32.9315051,6.85946377 34.9207554,6.85946377 C35.685318,6.85946377 36.5125271,7.01652014 37.1196423,7.26769305 L36.9000371,8.75459759 C36.2506036,8.54535199 35.6015611,8.41976553 35.0048055,8.41976553 C34.0308997,8.41976553 33.7690739,8.75459759 33.7690739,9.17357746 C33.7690739,10.3985585 37.3814681,9.83327285 37.3814681,12.492676 C37.3814681,14.0422272 36.3027928,14.994925 34.4705989,14.994925" id="Fill-5" fill="#1B5C92"></path>
                    <polyline id="Fill-6" fill="#1B5C92" points="44.1888404 13.3094277 44.1890358 14.8486192 38.849217 14.8486192 38.849217 6.99580082 44.1888404 6.99580082 44.1890358 8.55571165 40.6187644 8.55571165 40.6187644 10.1160134 43.5188831 10.1160134 43.5188831 11.5187701 40.6187644 11.5187701 40.6187644 13.3094277 44.1888404 13.3094277"></polyline>
                    <path d="M48.5672631,8.47195477 L47.5204487,8.47195477 L47.5204487,10.880185 L48.5672631,10.880185 C49.4362041,10.880185 49.8133544,10.660482 49.8133544,9.67631421 C49.8133544,8.73387827 49.4781314,8.47195477 48.5672631,8.47195477 Z M48.5672631,12.29379 L47.5204487,12.29379 L47.5204487,14.8486192 L45.7508036,14.8486192 L45.7508036,6.99580082 L48.5672631,6.99580082 C50.7454307,6.99580082 51.6351887,7.85408895 51.6351887,9.68667387 C51.6351887,11.3409944 50.7556926,12.29379 48.5672631,12.29379 L48.5672631,12.29379 Z" id="Fill-7" fill="#1B5C92"></path>
                    <path d="M55.3962343,9.15246721 L54.6108547,11.8436335 L56.6108547,11.8436335 L55.856946,9.15246721 L55.6474072,8.32525806 L55.6159373,8.32525806 L55.3962343,9.15246721 Z M57.0294446,13.3198851 L54.1815152,13.3198851 L53.741816,14.8486192 L51.8781521,14.8486192 L54.5898422,6.99580082 L56.6946125,6.99580082 L59.4376748,14.8486192 L57.4691438,14.8486192 L57.0294446,13.3198851 L57.0294446,13.3198851 Z" id="Fill-8" fill="#1B5C92"></path>
                    <polyline id="Fill-9" fill="#1B5C92" points="34.4077568 19.9446928 34.3880148 20.6837471 32.0787877 20.6837471 32.0787877 17.0375374 32.905215 17.0375374 32.905215 19.9446928 34.4077568 19.9446928"></polyline>
                    <path d="M36.5032425,19.4197708 C36.4306271,19.3905487 36.2847123,19.35644 36.0854354,19.35644 C35.7497238,19.35644 35.5941334,19.4879881 35.5941334,19.7454159 C35.5941334,20.0325545 35.7642859,20.1343919 36.0124291,20.1343919 C36.2698569,20.1343919 36.5032425,19.9788015 36.5032425,19.7892002 L36.5032425,19.4197708 Z M36.6151464,20.4017884 L36.600682,20.3969995 C36.4205607,20.6107408 36.1387975,20.7326134 35.8030858,20.7326134 C35.2441528,20.7326134 34.8891878,20.4163506 34.8891878,19.7550915 C34.8891878,19.2105251 35.2685859,18.8364046 35.9394228,18.8364046 C36.1580508,18.8364046 36.3476521,18.8704155 36.5032425,18.9189887 L36.5032425,18.7489338 C36.5032425,18.4522175 36.3476521,18.3158805 35.9442117,18.3158805 C35.6185666,18.3158805 35.4045321,18.3647468 35.1322489,18.4766507 L35.0689181,17.8736402 C35.3656345,17.7472719 35.7012484,17.6791523 36.0802556,17.6791523 C36.9506626,17.6791523 37.2522655,18.0536638 37.2522655,18.8604468 L37.2522655,20.6837471 L36.6735905,20.6837471 L36.6151464,20.4017884 L36.6151464,20.4017884 Z" id="Fill-10" fill="#1B5C92"></path>
                    <path d="M38.8814688,20.742289 C38.5265038,20.742289 38.2057453,20.6740716 37.9576021,20.5382232 L38.0353973,19.915764 C38.2787516,20.0565967 38.6239433,20.1247164 38.8765822,20.1247164 C39.1781851,20.1247164 39.3044557,20.0032347 39.3044557,19.828 C39.3044557,19.35644 37.9383487,19.6287232 37.9383487,18.5981324 C37.9383487,18.0680305 38.2980049,17.6887301 39.0566057,17.6887301 C39.3529311,17.6887301 39.6449563,17.7472719 39.8927085,17.8492071 L39.8297687,18.466682 C39.5864144,18.3647468 39.2607692,18.3158805 39.0418481,18.3158805 C38.7939981,18.3158805 38.657661,18.4133199 38.657661,18.5640237 C38.657661,19.0112483 40.0046124,18.743754 40.0046124,19.7602713 C40.0046124,20.3484264 39.6789672,20.742289 38.8814688,20.742289" id="Fill-11" fill="#1B5C92"></path>
                    <path d="M41.4878031,18.3015138 L41.4878031,19.8087467 C41.4878031,20.0373434 41.6044959,20.1343919 41.8378815,20.1343919 C41.9156767,20.1343919 42.0175141,20.1199275 42.071267,20.1002832 L42.1149535,20.6496384 C42.0127252,20.6937158 41.8182372,20.7326134 41.6092848,20.7326134 C41.0211297,20.7326134 40.7339912,20.3922106 40.7339912,19.8328867 L40.7339912,18.3015138 L40.4035571,18.3015138 L40.4035571,17.7375964 L40.7680999,17.7375964 L40.8943705,17.0712552 L41.4878031,17.0178931 L41.4878031,17.7375964 L42.1442733,17.7375964 L42.1442733,18.3015138 L41.4878031,18.3015138" id="Fill-12" fill="#1B5C92"></path>
                    <path d="M43.6030309,20.742289 C43.2481636,20.742289 42.9273073,20.6740716 42.6790664,20.5382232 L42.7568616,19.915764 C43.0003136,20.0565967 43.3456031,20.1247164 43.598242,20.1247164 C43.8997472,20.1247164 44.0261155,20.0032347 44.0261155,19.828 C44.0261155,19.35644 42.6599108,19.6287232 42.6599108,18.5981324 C42.6599108,18.0680305 43.0195669,17.6887301 43.7782655,17.6887301 C44.0745909,17.6887301 44.3664206,17.7472719 44.6142706,17.8492071 L44.5513308,18.466682 C44.3078787,18.3647468 43.9823313,18.3158805 43.7634101,18.3158805 C43.5155601,18.3158805 43.3793208,18.4133199 43.3793208,18.5640237 C43.3793208,19.0112483 44.7261745,18.743754 44.7261745,19.7602713 C44.7261745,20.3484264 44.400627,20.742289 43.6030309,20.742289" id="Fill-13" fill="#1B5C92"></path>
                    <path d="M47.2840334,18.4571042 C47.1333297,18.4037421 46.9535993,18.3647468 46.7832513,18.3647468 C46.2338961,18.3647468 46.0538725,18.5933435 46.0538725,19.215705 C46.0538725,19.8476443 46.3115935,20.0954943 46.7686891,20.0954943 C46.9631771,20.0954943 47.1480873,20.0565967 47.3036777,19.9835904 L47.3570397,20.5718432 C47.182196,20.6789582 46.9194906,20.742289 46.603521,20.742289 C45.7330162,20.742289 45.2711317,20.246198 45.2711317,19.215705 C45.2711317,18.2380853 45.6748653,17.6887301 46.6179854,17.6887301 C46.8657377,17.6887301 47.1429075,17.742483 47.3277199,17.8153916 L47.2840334,18.4571042" id="Fill-14" fill="#1B5C92"></path>
                    <path d="M49.768886,20.6837471 L49.768886,18.8071825 C49.768886,18.5055795 49.6180845,18.3499892 49.297326,18.3499892 C49.0784049,18.3499892 48.8888035,18.4474286 48.7964462,18.5736992 L48.7964462,20.6837471 L48.0426342,20.6837471 L48.0426342,16.9012004 L48.7964462,16.8623028 L48.7964462,17.5332374 L48.7869661,17.9221156 L48.8013328,17.9321821 C49.0202539,17.7472719 49.2873573,17.6791523 49.5355982,17.6791523 C50.157862,17.6791523 50.522307,18.0973503 50.522307,18.8071825 L50.522307,20.6837471 L49.768886,20.6837471" id="Fill-15" fill="#1B5C92"></path>
                    <path d="M51.3155052,20.6837471 L51.3155052,17.7569474 L51.9182225,17.7277254 L51.9863421,18.2188319 L52.0007088,18.2188319 C52.185619,17.8639647 52.4726598,17.6887301 52.8079805,17.6887301 C52.9395287,17.6887301 53.0509439,17.7084721 53.1287391,17.7325143 L53.0801659,18.4766507 C52.988004,18.4474286 52.8761002,18.4277844 52.7594074,18.4277844 C52.3656425,18.4277844 52.0737151,18.7148251 52.0737151,19.2057362 L52.0737151,20.6837471 L51.3155052,20.6837471" id="Fill-16" fill="#1B5C92"></path>
                    <path d="M53.848931,20.6837471 L53.848931,17.7569474 L54.6219962,17.7228388 L54.6219962,20.6837471 L53.848931,20.6837471 Z M54.2378092,17.4213335 C53.9463704,17.4213335 53.8051467,17.3386517 53.8051467,17.100575 C53.8051467,16.8916226 53.9463704,16.7749298 54.2378092,16.7749298 C54.5345255,16.7749298 54.6656827,16.8867359 54.6656827,17.100575 C54.6656827,17.3146095 54.5345255,17.4213335 54.2378092,17.4213335 L54.2378092,17.4213335 Z" id="Fill-17" fill="#1B5C92"></path>
                    <path d="M55.7062422,20.6837471 L55.7062422,18.2966271 L55.3369106,18.2966271 L55.3369106,17.7375964 L55.7062422,17.7375964 L55.7062422,17.6109349 C55.7062422,17.1686946 56.0125364,16.8042496 56.7175797,16.8042496 C56.8830411,16.8042496 57.0675603,16.8282918 57.1943196,16.8670917 L57.1502421,17.3535071 C57.0627714,17.3339605 56.9657229,17.324285 56.8682835,17.324285 C56.5719581,17.324285 56.4600542,17.4408801 56.4600542,17.6306769 L56.4600542,17.7375964 L57.0872046,17.7375964 L57.0872046,18.2966271 L56.4600542,18.2966271 L56.4600542,20.6837471 L55.7062422,20.6837471" id="Fill-18" fill="#1B5C92"></path>
                    <path d="M58.6334328,18.3015138 L58.6334328,19.8087467 C58.6334328,20.0373434 58.7501256,20.1343919 58.9835112,20.1343919 C59.0613064,20.1343919 59.1631438,20.1199275 59.216799,20.1002832 L59.2605833,20.6496384 C59.1583549,20.6937158 58.9638669,20.7326134 58.7549145,20.7326134 C58.1666617,20.7326134 57.8796209,20.3922106 57.8796209,19.8328867 L57.8796209,18.3015138 L57.5491868,18.3015138 L57.5491868,17.7375964 L57.9136319,17.7375964 L58.0400002,17.0712552 L58.6334328,17.0178931 L58.6334328,17.7375964 L59.2894144,17.7375964 L59.2894144,18.3015138 L58.6334328,18.3015138" id="Fill-19" fill="#1B5C92"></path>
                    <path d="M15.4916024,13.1950805 C15.4667783,13.2281142 15.428858,13.2448265 15.3900581,13.253036 C15.3463716,13.2583136 15.3010237,13.2484426 15.2636898,13.220491 L8.52101656,8.15520325 C8.48368268,8.12705624 8.46149737,8.08630173 8.45446062,8.0428107 C8.45162637,8.00332671 8.4570994,7.96218126 8.48182576,7.92924536 L9.03294018,7.19566409 C9.03294018,7.19566409 9.63741662,6.41350969 10.1683981,5.70670717 L17.178077,10.9725423 C16.6470955,11.6793449 16.042619,12.461597 16.042619,12.461597 L15.4916024,13.1950805 Z M11.6919524,3.94566255 L13.7002606,5.45485013 L13.6999674,5.45533879 L15.0573762,6.47469033 L16.414394,7.4944328 L16.4146872,7.49404187 L18.4234841,9.00254532 C18.5002042,9.06010985 18.5163301,9.16878856 18.4594497,9.24443363 L17.977921,9.90784286 L10.9682421,4.64190994 L11.4497709,3.97850072 C11.5065535,3.90285565 11.61533,3.88809801 11.6919524,3.94566255 Z M18.6529604,8.70876098 L15.281184,6.17670348 L11.9102871,3.64347319 C11.6754356,3.46706576 11.3415808,3.51407516 11.1655643,3.74834033 L8.19771695,7.69908497 C8.15139167,7.76075427 8.12275601,7.82946032 8.10682558,7.90041423 C8.05541821,8.10203669 8.12559025,8.32467166 8.30248635,8.45758807 L15.0340181,13.5144708 C15.2110119,13.6473872 15.4443975,13.6527625 15.6236392,13.547309 C15.6873608,13.512223 15.745414,13.4656045 15.7917393,13.4039352 L18.7595867,9.45319057 C18.9356032,9.21892541 18.8877142,8.88516841 18.6529604,8.70876098 L18.6529604,8.70876098 Z" id="Fill-20" fill="#9CA2A8"></path>
                    <path d="M7.73397553,22.9538811 L10.1023308,15.0897257 L16.5192612,15.089628 L15.9660944,15.8300505 L15.1700619,16.929836 L15.0795615,17.0924632 L14.9960001,17.2813804 L14.9103863,17.4940466 L14.8209609,17.7201022 L14.7353471,17.9662908 L14.6510038,18.2081791 L14.5711563,18.4515334 L14.4924815,18.6901965 L14.4222117,18.9168385 L14.3572195,19.1255955 L14.2998504,19.3075737 L14.2224462,19.5756543 L14.1944946,19.6476833 C14.1944946,19.6476833 14.1892171,19.6632228 14.1756322,19.6820852 C14.1596041,19.704075 14.062751,19.7932072 13.9834898,19.7342744 C13.9073561,19.6777849 13.9156634,19.4781171 13.9233842,19.3832187 C13.9468401,19.0921709 13.9702959,18.8011231 13.9938495,18.5100752 C14.002059,18.4080424 13.877059,18.3501846 13.7963318,18.3967054 C13.4424419,18.6004779 13.2308507,18.8477416 13.0374378,19.1302866 C13.0554206,19.0640239 13.0734034,18.9978589 13.0912885,18.9315962 C13.1726998,18.6315569 13.288122,18.321158 13.332004,18.013007 C13.3570235,17.8369905 13.3125552,17.6278426 13.106437,17.5937339 C12.8752016,17.5552273 12.7238137,17.7984838 12.6102484,17.9589608 C12.2676954,18.4429329 12.0649002,19.0571826 11.6398609,19.4782149 C11.4796771,19.6369327 11.3019014,19.7533323 11.0711546,19.6878514 C10.8045399,19.6122063 10.7008456,19.9264168 11.1720147,19.9688328 C11.6349742,20.0106624 11.979775,19.5210218 12.1903889,19.1786643 C12.3432428,18.9302279 12.476941,18.6705523 12.6259833,18.419868 C12.6975236,18.2994614 12.7721914,18.1805208 12.8542868,18.0670531 C12.8893728,18.0185777 12.9561242,17.8886911 13.0188686,17.8714901 C13.1010617,17.8488161 13.0800492,17.8962165 13.0750648,17.9610132 C13.0637279,18.107319 13.0018631,18.2580227 12.9636496,18.3989532 C12.9218201,18.5532731 12.8799905,18.7074952 12.8380632,18.8617173 C12.7483446,19.1922491 12.6587238,19.522781 12.5691029,19.8533128 C12.5284461,20.0032347 12.7260616,20.0727226 12.8090366,19.9545638 C13.1390797,19.4842743 13.3031729,19.0855251 13.7101316,18.7710214 C13.7018243,18.8743248 13.6934193,18.9776282 13.685112,19.0810294 C13.6713317,19.2519638 13.6389822,19.432476 13.6506124,19.6037036 C13.6695726,19.8827303 13.881066,20.076241 14.1456283,19.9541729 C14.2846041,19.8900603 14.3839982,19.7928163 14.3839982,19.7928163 L14.4002218,19.7816748 L14.4560272,19.739552 L14.5578646,19.6720187 L14.6968404,19.5764362 L14.8511603,19.4611117 L15.0215083,19.3409005 L15.221958,19.1998723 L15.6280371,18.9005172 L15.8310278,18.7507908 L16.0297183,18.5997938 L16.2154104,18.4595475 L16.3865402,18.3198875 L16.5364621,18.2033902 L16.6555982,18.0924636 L16.7491284,18.0032337 L16.7524513,17.9980539 L16.7548946,18.0001063 L17.3872248,17.2525492 L19.0047979,15.089628 L21.8752059,15.0895302 L24.1084946,22.9538811 L7.73397553,22.9538811 Z M19.2592937,14.7492251 L24.3450076,7.94849869 L24.8636748,7.26485881 C24.8636748,7.26485881 24.873839,7.25010117 24.8792143,7.24267349 C24.9161573,7.19165705 24.908925,7.12480792 24.8582018,7.08806044 L23.4186976,6.0447644 C23.3685607,6.00840786 23.302298,6.02257909 23.2652573,6.07291141 C23.2599798,6.08024135 23.2491314,6.09372846 23.2491314,6.09372846 L23.0542525,6.34236032 L16.7735615,14.7492251 L9.85604455,14.7493229 L7.26368601,23.2942839 L24.5704769,23.2942839 L22.1257924,14.7491274 L19.2592937,14.7492251 L19.2592937,14.7492251 Z" id="Fill-21" fill="#1B5C92"></path>
                    <path d="M25.5156493,7.58610603 L25.3255593,7.44322089 C25.2877368,7.41468296 25.2334952,7.42250157 25.205055,7.46032411 L22.7874424,10.6767056 C22.7590022,10.7145282 22.7667231,10.7687698 22.8046434,10.79721 L22.9946356,10.9400951 C23.0325559,10.9685353 23.0867975,10.9609122 23.1152377,10.9229919 L25.5327525,7.70661038 C25.5611927,7.66878785 25.5534719,7.61454623 25.5156493,7.58610603" id="Fill-22" fill="#1B5C92"></path>
                    <polyline id="Fill-23" fill="#1B5C92" points="15.8055196 21.2806981 20.6149433 21.2806981 20.5129104 20.8995408 11.0982265 20.8995408 10.9961936 21.2806981 15.8055196 21.2806981"></polyline>
                </g>
            </g>
        </g>
    </g>
</svg>